{
    "asset" : {
        "generator" : "Khronos glTF Blender I/O v1.6.16",
        "version" : "2.0"
    },
    "scene" : 0,
    "scenes" : [
        {
            "name" : "Scene",
            "nodes" : [
                0
            ]
        }
    ],
    "nodes" : [
        {
            "mesh" : 0,
            "name" : "Cylinder"
        }
    ],
    "animations" : [
        {
            "channels" : [
                {
                    "sampler" : 0,
                    "target" : {
                        "node" : 0,
                        "path" : "rotation"
                    }
                }
            ],
            "name" : "Animation",
            "samplers" : [
                {
                    "input" : 4,
                    "interpolation" : "LINEAR",
                    "output" : 5
                }
            ]
        }
    ],
    "materials" : [
        {
            "doubleSided" : true,
            "name" : "Material.001",
            "pbrMetallicRoughness" : {
                "baseColorFactor" : [
                    0.800000011920929,
                    0.800000011920929,
                    0.800000011920929,
                    1
                ],
                "metallicFactor" : 0,
                "roughnessFactor" : 0.5
            }
        }
    ],
    "meshes" : [
        {
            "name" : "Cylinder.002",
            "primitives" : [
                {
                    "attributes" : {
                        "POSITION" : 0,
                        "NORMAL" : 1,
                        "TEXCOORD_0" : 2
                    },
                    "indices" : 3,
                    "material" : 0
                }
            ]
        }
    ],
    "accessors" : [
        {
            "bufferView" : 0,
            "componentType" : 5126,
            "count" : 198,
            "max" : [
                1.4596526622772217,
                0.5326757431030273,
                1.4596526622772217
            ],
            "min" : [
                -1.4596526622772217,
                -0.5326757431030273,
                -1.4596525430679321
            ],
            "type" : "VEC3"
        },
        {
            "bufferView" : 1,
            "componentType" : 5126,
            "count" : 198,
            "type" : "VEC3"
        },
        {
            "bufferView" : 2,
            "componentType" : 5126,
            "count" : 198,
            "type" : "VEC2"
        },
        {
            "bufferView" : 3,
            "componentType" : 5123,
            "count" : 768,
            "type" : "SCALAR"
        },
        {
            "bufferView" : 4,
            "componentType" : 5126,
            "count" : 2,
            "max" : [
                5.833333333333333
            ],
            "min" : [
                0.041666666666666664
            ],
            "type" : "SCALAR"
        },
        {
            "bufferView" : 5,
            "componentType" : 5126,
            "count" : 2,
            "type" : "VEC4"
        }
    ],
    "bufferViews" : [
        {
            "buffer" : 0,
            "byteLength" : 2376,
            "byteOffset" : 0
        },
        {
            "buffer" : 0,
            "byteLength" : 2376,
            "byteOffset" : 2376
        },
        {
            "buffer" : 0,
            "byteLength" : 1584,
            "byteOffset" : 4752
        },
        {
            "buffer" : 0,
            "byteLength" : 1536,
            "byteOffset" : 6336
        },
        {
            "buffer" : 0,
            "byteLength" : 8,
            "byteOffset" : 7872
        },
        {
            "buffer" : 0,
            "byteLength" : 32,
            "byteOffset" : 7880
        }
    ],
    "buffers" : [
        {
            "byteLength" : 7912,
            "uri" : "data:application/octet-stream;base64,"
        }
    ]
}
